<svg xmlns="http://www.w3.org/2000/svg" xmlns:xlink="http://www.w3.org/1999/xlink" viewBox="0 0 256 256"><defs><style>.cls-1{fill:url(#linear-gradient);}.cls-2{fill:#fff;}</style><linearGradient id="linear-gradient" x1="-0.15" y1="127.84" x2="255.85" y2="127.84" gradientTransform="translate(0.15 0.16)" gradientUnits="userSpaceOnUse"><stop offset="0" stop-color="#ff931e"/><stop offset="1" stop-color="#f15a24"/></linearGradient></defs><g id="Layer_2" data-name="Layer 2"><g id="Layer_1-2" data-name="Layer 1"><rect class="cls-1" width="256" height="256" transform="translate(0 256) rotate(-90)"/><path class="cls-2" d="M185.14,106H182l2.89,3.47h.26a8,8,0,0,1,8,8v79a8,8,0,0,1-8,8H174.58A59.68,59.68,0,0,0,188,166.82V126.19a59.84,59.84,0,0,0-1.55-13.53l-48,48a17.37,17.37,0,0,1-7.69,4.05v62.54a61.49,61.49,0,0,0,40.8-19.38h13.59a11.44,11.44,0,0,0,11.42-11.42v-79A11.44,11.44,0,0,0,185.14,106Z"/><path class="cls-2" d="M69.59,112.66A59.84,59.84,0,0,0,68,126.19v40.63a59.68,59.68,0,0,0,13.38,37.55H70.86a8,8,0,0,1-8-8v-79a8,8,0,0,1,8-8h2L74.59,106H70.86a11.44,11.44,0,0,0-11.42,11.42v79a11.44,11.44,0,0,0,11.42,11.42H84.45a61.49,61.49,0,0,0,40.8,19.38V164.68a17.37,17.37,0,0,1-7.69-4.05Z"/><path class="cls-2" d="M181.7,28.78a6.65,6.65,0,0,0-6.65,6.65,6.16,6.16,0,0,0,.13,1.3c-8.19,3.55-17.49,4.85-24.83,10.2-6.63,4.83-11.14,11.88-10.2,20.21a51.87,51.87,0,0,0-22.57-.38c.76-8.17-3.71-15.07-10.24-19.83C99.76,41.4,90.08,40.2,81.69,36.38a3.79,3.79,0,0,0-1-.3c0-.21,0-.43,0-.65a6.66,6.66,0,1,0-6.66,6.66A6.5,6.5,0,0,0,77,41.43a3.31,3.31,0,0,0,1.24.94c7.1,3.24,15,4.67,21.9,8.25,5.44,2.81,11.65,8.49,10.68,15.28a4.38,4.38,0,0,0,.37,2.6c-16.83,5.73-30.26,19.75-36,37.52H180.88c-5.6-17.28-18.46-31-34.64-37a4.09,4.09,0,0,0,.68-3.09c-1-6.79,5.24-12.47,10.68-15.28,6.94-3.58,14.8-5,21.9-8.25a3.31,3.31,0,0,0,.74-.45,6.41,6.41,0,0,0,1.46.17,6.66,6.66,0,0,0,0-13.31Z"/><path class="cls-2" d="M117.74,154.85a14.52,14.52,0,0,0,20.52,0l45.48-44.78H73Z"/></g></g></svg>